<svg xmlns="http://www.w3.org/2000/svg" viewBox="0 0 144.86 34.88"><defs><style>.cls-1{fill:#fff;}</style></defs><title>Asset 1</title><g id="Layer_2" data-name="Layer 2"><g id="Layer_1-2" data-name="Layer 1"><path class="cls-1" d="M56,22a2,2,0,0,1-1.47.56h-17a7.86,7.86,0,0,0,2.83,5A9.06,9.06,0,0,0,48.93,29a8.28,8.28,0,0,0,2.39-1.2,2.31,2.31,0,0,1,1.47-.49,1.92,1.92,0,0,1,1.34.45,2,2,0,0,1,.8,1.52,1.62,1.62,0,0,1-.71,1.34,12.31,12.31,0,0,1-3.77,2,13.62,13.62,0,0,1-10.86-.83,11.48,11.48,0,0,1-4.53-4.39A12.49,12.49,0,0,1,33.43,21,13.2,13.2,0,0,1,35,14.56a11.13,11.13,0,0,1,4.28-4.42,12.24,12.24,0,0,1,6.22-1.58,11.22,11.22,0,0,1,5.93,1.52,10,10,0,0,1,3.84,4.24,14,14,0,0,1,1.34,6.25A1.87,1.87,0,0,1,56,22ZM40.19,14.19A8,8,0,0,0,37.62,19H52.48a7.91,7.91,0,0,0-2.23-4.77,6.55,6.55,0,0,0-4.77-1.79A7.72,7.72,0,0,0,40.19,14.19Z"/><path class="cls-1" d="M90.84,11.16a10,10,0,0,1,2.39,7.1V31a2.25,2.25,0,0,1-.63,1.63A2.29,2.29,0,0,1,88.67,31V18.26a5.71,5.71,0,0,0-1.36-4.13,4.83,4.83,0,0,0-3.64-1.41,5,5,0,0,0-3.82,1.61,5.79,5.79,0,0,0-1.49,4.11V31a2.25,2.25,0,0,1-.63,1.63A2.29,2.29,0,0,1,73.8,31V18.26a5.71,5.71,0,0,0-1.36-4.13,4.83,4.83,0,0,0-3.64-1.41,5,5,0,0,0-3.86,1.61,5.79,5.79,0,0,0-1.5,4.11V31a2.25,2.25,0,0,1-.63,1.63A2.29,2.29,0,0,1,58.89,31V11.16a2.19,2.19,0,0,1,.65-1.65,2.25,2.25,0,0,1,1.63-.63,2.22,2.22,0,0,1,1.61.6,2.25,2.25,0,0,1,.67,1.59,8.2,8.2,0,0,1,2.77-1.81,9.23,9.23,0,0,1,3.48-.65,8.92,8.92,0,0,1,4.09.92,7.84,7.84,0,0,1,3,2.61A9.3,9.3,0,0,1,80.1,9.55a10.43,10.43,0,0,1,4.47-.94A8.2,8.2,0,0,1,90.84,11.16Z"/><line class="cls-1" x1="112.18" y1="12.89" x2="112.18" y2="18.85"/><path class="cls-1" d="M112.18,20A1.15,1.15,0,0,1,111,18.85v-6a1.15,1.15,0,1,1,2.31,0v6A1.15,1.15,0,0,1,112.18,20Z"/><line class="cls-1" x1="103.85" y1="23.06" x2="103.85" y2="28.51"/><path class="cls-1" d="M103.85,29.66a1.15,1.15,0,0,1-1.15-1.15V23.06a1.15,1.15,0,0,1,2.31,0v5.45A1.15,1.15,0,0,1,103.85,29.66Z"/><line class="cls-1" x1="136.46" y1="12.97" x2="136.54" y2="18.32"/><path class="cls-1" d="M136.54,19.47a1.15,1.15,0,0,1-1.15-1.14L135.31,13a1.15,1.15,0,0,1,1.14-1.17h0A1.15,1.15,0,0,1,137.62,13l.07,5.35a1.15,1.15,0,0,1-1.14,1.17Z"/><line class="cls-1" x1="128.2" y1="22.25" x2="128.2" y2="28.51"/><path class="cls-1" d="M128.2,29.66A1.15,1.15,0,0,1,127,28.51V22.25a1.15,1.15,0,1,1,2.31,0v6.26A1.15,1.15,0,0,1,128.2,29.66Z"/><path class="cls-1" d="M144.44,17.75c0-.15-.08-.3-.13-.44a.3.3,0,0,0,0,0,12.38,12.38,0,0,0-6.75-7.59l-.46-.2-.06,0h0l-.51-.19-.39-.13h0L135.6,9c-.25-.07-.5-.12-.75-.17l-.5-.09-.41-.05-.38,0-.55,0-.54,0h0a12.36,12.36,0,0,0-10.29,5.53l0,0-.1.18a2.07,2.07,0,0,0-.17.53,1.38,1.38,0,0,0,0,.28A2,2,0,0,0,125,16.89h0a1.73,1.73,0,0,0,.38-.33h0l.06-.07,0,0c0-.08.1-.15.14-.22l.23-.32a8.33,8.33,0,0,1,6.6-3.28h0a8.34,8.34,0,0,1,7.89,5.78v0l.09.3a8.32,8.32,0,0,1-5.22,10l-.39.13-.33.09-.25.06-.42.09a8.24,8.24,0,0,1-1.39.12h-.33l-.43,0-.42-.05-.35-.06-.33-.07a7.43,7.43,0,0,1-.91-.28,7.25,7.25,0,0,1-.75-.32l-.33-.17a8.12,8.12,0,0,1-.76-.47,5.87,5.87,0,0,1-.5-.37l-.25-.21c-.18-.15-.34-.32-.5-.48s-.27-.28-.39-.43l0,0-.26-.4-.82-1.25-.06-.09-.17-.26h0l-.36-.55v0l-3.94-6-1.71-2.59-1.26-1.92a12.34,12.34,0,0,0-9.65-4.65h0a12.38,12.38,0,0,0,0,24.76h0A12.36,12.36,0,0,0,118.07,28l0,0,.18-.28,0,0a2.07,2.07,0,0,0,.2-.58,1.46,1.46,0,0,0,0-.26,2,2,0,0,0-3.66-1.33l-.07.1,0,0,0,0a7.84,7.84,0,0,1-.54.7,8.3,8.3,0,1,1-6.33-13.7h0a8.33,8.33,0,0,1,6.33,2.94h0l1.11,1.69h0l.07.1.66,1h0L121,25.89l.28.42v0l0,.06,0,.08v0c.6.92,3.59,5.25,8.14,6.5h0a9.32,9.32,0,0,0,2.46.33h.84l.55,0,.29,0,.33,0,.21,0,.43-.07.54-.11.09,0,.37-.09.49-.14.58-.19a12.41,12.41,0,0,0,7.71-14.82Z"/><path class="cls-1" d="M28.06,15a2.18,2.18,0,0,0-2.4,2.39V27l-.25.21a12,12,0,0,1-8,2.83,12.06,12.06,0,0,1-8.93-3.71,12.06,12.06,0,0,1-3.71-8.94,12.06,12.06,0,0,1,3.7-8.92,12.06,12.06,0,0,1,8.91-3.7,11.39,11.39,0,0,1,4.79.95,22.76,22.76,0,0,1,4.18,2.81,2.58,2.58,0,0,0,1.62.7A2.51,2.51,0,0,0,30.47,6.8a2.47,2.47,0,0,0-.71-1.67A14.74,14.74,0,0,0,24.1,1.32,18.14,18.14,0,0,0,17.42,0,16.87,16.87,0,0,0,5.12,5.11,16.84,16.84,0,0,0,0,17.43,16.88,16.88,0,0,0,5.11,29.77a16.88,16.88,0,0,0,12.33,5.11,21.38,21.38,0,0,0,7.5-1.7c3.72-1.44,5.52-3.11,5.52-5.11V17.44A2.18,2.18,0,0,0,28.06,15Z"/></g></g></svg>